<svg xmlns="http://www.w3.org/2000/svg">
  <!-- These icons intentionally use currentColor so they can be tinted via Tailwind/text colors. -->

  <symbol id="github-icon" viewBox="0 0 20 20">
    <path fill="currentColor" fill-rule="evenodd" d="M10 2.1c-4.35 0-7.88 3.56-7.88 7.95 0 3.5 2.24 6.47 5.35 7.52.4.08.55-.18.55-.39 0-.18-.01-.79-.01-1.44-2.18.47-2.64-.95-2.64-.95-.36-.92-.88-1.16-.88-1.16-.72-.49.05-.49.05-.49.8.05 1.22.82 1.22.82.71 1.21 1.84.87 2.3.66.06-.51.27-.87.5-1.07-1.75-.19-3.58-.87-3.58-3.92 0-.87.31-1.58.81-2.13-.08-.2-.35-1.01.08-2.11 0 0 .67-.21 2.16.81.63-.18 1.33-.27 2.02-.27.69 0 1.39.09 2.02.27 1.49-1.02 2.16-.81 2.16-.81.43 1.1.16 1.91.08 2.11.51.55.81 1.26.81 2.13 0 3.05-1.84 3.72-3.6 3.92.29.25.54.73.54 1.47 0 1.07-.01 1.92-.01 2.18 0 .21.15.48.55.39 3.11-1.05 5.35-4.02 5.35-7.52C17.88 5.66 14.35 2.1 10 2.1Z" clip-rule="evenodd"/>
  </symbol>

  <symbol id="x-icon" viewBox="0 0 20 20">
    <path fill="currentColor" d="M4 3h4.2l3.1 4.3L15.2 3H18l-5.4 6.2L18 17h-4.2l-3.4-4.7L6.2 17H3.4l5.7-6.6L4 3Zm2.6 1.7 7.2 10.1h1.5L8.1 4.7H6.6Z"/>
  </symbol>

  <symbol id="bluesky-icon" viewBox="0 0 20 20">
    <path fill="currentColor" d="M10 9.2c-.86-1.64-3-4.46-4.98-5.84-1.9-1.32-2.63-1.09-3.1-.88-.55.25-.65 1.1-.65 1.6 0 .48.27 4.12.45 4.72.6 2.02 2.72 2.69 4.67 2.47-2.89.43-5.45 1.51-2.09 5.23 3.7 3.83 5.07-.83 5.76-3.18.7 2.35 1.5 6.85 5.7 3.18 3.15-3.18.86-4.8-2.02-5.23 1.96.22 4.08-.45 4.68-2.47.18-.6.45-4.24.45-4.72 0-.5-.1-1.35-.65-1.6-.47-.21-1.2-.44-3.1.88C13 4.74 10.86 7.56 10 9.2Z"/>
  </symbol>

  <symbol id="discord-icon" viewBox="0 0 20 20">
    <path fill="currentColor" d="M15.9 5.2c-1.1-.53-2.3-.92-3.6-1.1-.2.3-.4.7-.6 1.05-1.3-.2-2.6-.2-3.9 0-.2-.35-.4-.75-.6-1.05-1.3.18-2.5.57-3.6 1.1-2.3 3.4-2.9 6.7-2.6 9.9 1.3.98 2.7 1.72 4.3 2.2.3-.4.6-.9.9-1.4-.5-.2-1-.5-1.5-.8.1-.08.2-.16.3-.24 2.8 1.3 5.8 1.3 8.6 0 .1.08.2.16.3.24-.5.3-1 .6-1.5.8.3.5.6 1 .9 1.4 1.6-.48 3-1.22 4.3-2.2.4-3.6-.6-6.8-2.6-9.9ZM7.3 12.3c-.8 0-1.5-.7-1.5-1.6s.6-1.6 1.5-1.6c.8 0 1.5.7 1.5 1.6s-.6 1.6-1.5 1.6Zm5.4 0c-.8 0-1.5-.7-1.5-1.6s.6-1.6 1.5-1.6c.8 0 1.5.7 1.5 1.6s-.6 1.6-1.5 1.6Z"/>
  </symbol>

  <symbol id="terminal-icon" viewBox="0 0 20 20">
    <rect x="3" y="4" width="14" height="12" rx="3" fill="none" stroke="currentColor" stroke-width="1.6"/>
    <path d="M6.3 8.2 8.9 10 6.3 11.8" fill="none" stroke="currentColor" stroke-width="1.6" stroke-linecap="round" stroke-linejoin="round"/>
    <path d="M10.3 12h3.4" fill="none" stroke="currentColor" stroke-width="1.6" stroke-linecap="round"/>
  </symbol>

  <symbol id="share-icon" viewBox="0 0 20 20">
    <path d="M12.8 6.2 9.1 9.1m3.7 4.7-3.7-2.9" fill="none" stroke="currentColor" stroke-width="1.6" stroke-linecap="round" stroke-linejoin="round"/>
    <circle cx="14.6" cy="5.4" r="1.6" fill="none" stroke="currentColor" stroke-width="1.6"/>
    <circle cx="7.8" cy="10" r="1.6" fill="none" stroke="currentColor" stroke-width="1.6"/>
    <circle cx="14.6" cy="14.6" r="1.6" fill="none" stroke="currentColor" stroke-width="1.6"/>
  </symbol>

  <symbol id="linkedin-icon" viewBox="0 0 20 20">
    <rect x="3" y="3" width="14" height="14" rx="3.2" fill="none" stroke="currentColor" stroke-width="1.6"/>
    <circle cx="7.2" cy="8" r="0.9" fill="currentColor"/>
    <path d="M6.3 9.6v5.1" fill="none" stroke="currentColor" stroke-width="1.6" stroke-linecap="round"/>
    <path d="M9.2 14.7V9.8" fill="none" stroke="currentColor" stroke-width="1.6" stroke-linecap="round"/>
    <path d="M9.2 11.1c.5-.9 1.4-1.4 2.4-1.3 1.2.1 2.1 1 2.1 2.4v2.5" fill="none" stroke="currentColor" stroke-width="1.6" stroke-linecap="round" stroke-linejoin="round"/>
  </symbol>

  <symbol id="facebook-icon" viewBox="0 0 20 20">
    <rect x="3" y="3" width="14" height="14" rx="3.2" fill="none" stroke="currentColor" stroke-width="1.6"/>
    <path d="M11.7 7.1h1.5V5.2h-1.5c-1.9 0-3.1 1.2-3.1 3.1v1.2H6.9v1.9h1.7v3.4h2.1v-3.4h1.8l.3-1.9h-2.1V8.6c0-.9.4-1.5 1-1.5Z" fill="currentColor"/>
  </symbol>

  <symbol id="instagram-icon" viewBox="0 0 20 20">
    <rect x="4" y="4" width="12" height="12" rx="3.2" fill="none" stroke="currentColor" stroke-width="1.6"/>
    <circle cx="10" cy="10" r="2.6" fill="none" stroke="currentColor" stroke-width="1.6"/>
    <circle cx="13.6" cy="6.6" r="0.9" fill="currentColor"/>
  </symbol>

  <symbol id="youtube-icon" viewBox="0 0 20 20">
    <path d="M16.6 7.2c.3.3.5.8.6 1.4.1.6.1 1.3.1 1.4s0 .8-.1 1.4c-.1.6-.3 1.1-.6 1.4-.4.4-1 .7-1.8.8-1.2.2-4.8.2-4.8.2s-3.6 0-4.8-.2c-.8-.1-1.4-.4-1.8-.8-.3-.3-.5-.8-.6-1.4-.1-.6-.1-1.3-.1-1.4s0-.8.1-1.4c.1-.6.3-1.1.6-1.4.4-.4 1-.7 1.8-.8C6.4 6.2 10 6.2 10 6.2s3.6 0 4.8.2c.8.1 1.4.4 1.8.8Z" fill="none" stroke="currentColor" stroke-width="1.6" stroke-linejoin="round"/>
    <path d="M9 8.6 12.7 10 9 11.4V8.6Z" fill="currentColor"/>
  </symbol>

  <symbol id="tiktok-icon" viewBox="0 0 20 20">
    <path d="M12.4 4.6c.7 1.4 1.8 2.2 3.4 2.4v2c-1.3-.1-2.4-.6-3.4-1.4v4.6c0 2.1-1.7 3.8-3.8 3.8s-3.8-1.7-3.8-3.8 1.7-3.8 3.8-3.8c.3 0 .7 0 1 .1v2.2c-.3-.2-.6-.3-1-.3-1 0-1.8.8-1.8 1.8s.8 1.8 1.8 1.8 1.8-.8 1.8-1.8V4.6h2Z" fill="none" stroke="currentColor" stroke-width="1.6" stroke-linecap="round" stroke-linejoin="round"/>
  </symbol>

  <symbol id="gitlab-icon" viewBox="0 0 20 20">
    <path d="M10 17.2 3.9 12.6l1.9-6.2 2.1 5.4h4.2l2.1-5.4 1.9 6.2L10 17.2Z" fill="none" stroke="currentColor" stroke-width="1.6" stroke-linejoin="round"/>
    <path d="M5.8 6.4 3.9 12.6m10.3-6.2 1.9 6.2" fill="none" stroke="currentColor" stroke-width="1.6" stroke-linecap="round"/>
  </symbol>

  <symbol id="behance-icon" viewBox="0 0 20 20">
    <rect x="3.2" y="5.2" width="9.2" height="11.6" rx="2.2" fill="none" stroke="currentColor" stroke-width="1.6"/>
    <path d="M6.1 8.4h2.6c1 0 1.6.6 1.6 1.4s-.6 1.4-1.6 1.4H6.1V8.4Z" fill="none" stroke="currentColor" stroke-width="1.6" stroke-linejoin="round"/>
    <path d="M6.1 11.2h3c1.1 0 1.8.7 1.8 1.6s-.7 1.6-1.8 1.6h-3v-3.2Z" fill="none" stroke="currentColor" stroke-width="1.6" stroke-linejoin="round"/>
    <path d="M13.6 6h3.2" fill="none" stroke="currentColor" stroke-width="1.6" stroke-linecap="round"/>
    <path d="M14.5 10.6c.2-.9 1-1.6 2.1-1.6 1.2 0 2 .8 2.1 2v1h-4.2c.1 1.1.9 1.9 2.1 1.9.7 0 1.3-.2 1.7-.7" fill="none" stroke="currentColor" stroke-width="1.6" stroke-linecap="round" stroke-linejoin="round"/>
  </symbol>

  <symbol id="dribbble-icon" viewBox="0 0 20 20">
    <circle cx="10" cy="10" r="6.8" fill="none" stroke="currentColor" stroke-width="1.6"/>
    <path d="M3.6 8.2c2.6.2 5.2-.2 7.5-1.3m-5.6 8.1c.9-2.3 3.1-4.5 6.7-5.2m.6 7.2c-.4-3.1-1.7-6.2-3.6-9" fill="none" stroke="currentColor" stroke-width="1.6" stroke-linecap="round" stroke-linejoin="round"/>
  </symbol>

  <symbol id="producthunt-icon" viewBox="0 0 20 20">
    <circle cx="10" cy="10" r="7" fill="none" stroke="currentColor" stroke-width="1.6"/>
    <path d="M8 14.5V5.6h3.4c1.9 0 3.2 1.2 3.2 3s-1.3 3-3.2 3H8" fill="none" stroke="currentColor" stroke-width="1.6" stroke-linecap="round" stroke-linejoin="round"/>
  </symbol>

  <symbol id="reddit-icon" viewBox="0 0 20 20">
    <path d="M6.4 14.2c.9 1 2.2 1.6 3.6 1.6s2.7-.6 3.6-1.6" fill="none" stroke="currentColor" stroke-width="1.6" stroke-linecap="round"/>
    <path d="M4.9 9.4c.8-.8 2.6-1.6 5.1-1.6s4.3.8 5.1 1.6" fill="none" stroke="currentColor" stroke-width="1.6" stroke-linecap="round"/>
    <circle cx="7.7" cy="11.3" r="0.8" fill="currentColor"/>
    <circle cx="12.3" cy="11.3" r="0.8" fill="currentColor"/>
    <path d="M13.7 7.8 14.4 6c.2-.6-.2-1.2-.8-1.3l-2-.3" fill="none" stroke="currentColor" stroke-width="1.6" stroke-linecap="round" stroke-linejoin="round"/>
    <circle cx="15.5" cy="7.7" r="1" fill="none" stroke="currentColor" stroke-width="1.6"/>
  </symbol>

  <symbol id="telegram-icon" viewBox="0 0 20 20">
    <path d="M16.8 4.2 3.9 9.6c-.7.3-.7 1.3.1 1.5l3.2.9 1.2 3.5c.2.6 1 .7 1.4.2l1.9-2.2 3.5 2.6c.5.4 1.3.1 1.4-.6l2.1-10.7c.1-.8-.7-1.3-1.5-.8Z" fill="none" stroke="currentColor" stroke-width="1.6" stroke-linejoin="round"/>
    <path d="M7.2 12 16.2 5.4" fill="none" stroke="currentColor" stroke-width="1.6" stroke-linecap="round"/>
  </symbol>

  <symbol id="whatsapp-icon" viewBox="0 0 20 20">
    <path d="M10 16.9c-1.2 0-2.3-.3-3.3-.9l-2 .6.6-1.9c-.7-1-.9-2-.9-3.3 0-3.2 2.6-5.8 5.8-5.8s5.8 2.6 5.8 5.8-2.6 5.5-5.8 5.5Z" fill="none" stroke="currentColor" stroke-width="1.6" stroke-linejoin="round"/>
    <path d="M8.2 8.2c.2.9.8 1.8 1.5 2.5.8.8 1.6 1.3 2.5 1.6.3.1.6 0 .8-.2l.7-.7c.2-.2.2-.5.1-.7l-.7-1c-.2-.3-.6-.3-.9-.2l-.4.2c-.1.1-.2.1-.3 0-.4-.2-.9-.6-1.2-1-.1-.1-.1-.2 0-.3l.2-.4c.1-.3 0-.7-.2-.9l-1-.7c-.2-.2-.5-.1-.7.1l-.7.7c-.2.2-.3.5-.2.8Z" fill="none" stroke="currentColor" stroke-width="1.2" stroke-linecap="round" stroke-linejoin="round"/>
  </symbol>

  <symbol id="mail-icon" viewBox="0 0 20 20">
    <rect x="3.5" y="5.5" width="13" height="9" rx="2.2" fill="none" stroke="currentColor" stroke-width="1.6"/>
    <path d="M4.6 6.7 10 10.8l5.4-4.1" fill="none" stroke="currentColor" stroke-width="1.6" stroke-linecap="round" stroke-linejoin="round"/>
  </symbol>

  <symbol id="stackoverflow-icon" viewBox="0 0 20 20">
    <path d="M6.2 16.2h7.6V18H6.2v-1.8Z" fill="none" stroke="currentColor" stroke-width="1.6" stroke-linejoin="round"/>
    <path d="M7 14.1h6M7.3 12.2l5.9.5M7.9 10.3l5.6 1.3M8.8 8.6l5 2.1M10 7.2l4.1 3" fill="none" stroke="currentColor" stroke-width="1.6" stroke-linecap="round" stroke-linejoin="round"/>
  </symbol>

  <symbol id="devto-icon" viewBox="0 0 20 20">
    <rect x="3.3" y="5" width="13.4" height="10" rx="2.4" fill="none" stroke="currentColor" stroke-width="1.6"/>
    <path d="M6.6 12.8V7.2h1.5c1.2 0 2 .8 2 2s-.8 2-2 2H6.6Z" fill="none" stroke="currentColor" stroke-width="1.6" stroke-linejoin="round"/>
    <path d="M11.4 7.2v5.6m2.2 0V7.2m-2.2 2.8h2.2" fill="none" stroke="currentColor" stroke-width="1.6" stroke-linecap="round" stroke-linejoin="round"/>
  </symbol>

  <symbol id="medium-icon" viewBox="0 0 20 20">
    <path d="M5.2 6.7v6.6M5.2 6.7l4.1 6.6 4.1-6.6v6.6" fill="none" stroke="currentColor" stroke-width="1.6" stroke-linecap="round" stroke-linejoin="round"/>
    <path d="M14.3 6.7v6.6" fill="none" stroke="currentColor" stroke-width="1.6" stroke-linecap="round"/>
  </symbol>

  <symbol id="spotify-icon" viewBox="0 0 20 20">
    <circle cx="10" cy="10" r="7" fill="none" stroke="currentColor" stroke-width="1.6"/>
    <path d="M6.8 9.3c2.6-.6 5.2-.3 7.4.8M7.2 11.6c2-.4 4-.2 5.7.6M7.6 13.6c1.5-.2 2.9-.1 4.1.4" fill="none" stroke="currentColor" stroke-width="1.6" stroke-linecap="round"/>
  </symbol>

  <symbol id="soundcloud-icon" viewBox="0 0 20 20">
    <path d="M5.2 12.6V9.8m1.7 2.8V8.6m1.7 4V7.8m1.7 4.8V8.8" fill="none" stroke="currentColor" stroke-width="1.6" stroke-linecap="round"/>
    <path d="M12.2 12.6h3.1c1.1 0 2-.9 2-2s-.9-2-2-2c-.4 0-.8.1-1.1.3-.3-1.6-1.7-2.8-3.4-2.8-.9 0-1.8.3-2.4.9" fill="none" stroke="currentColor" stroke-width="1.6" stroke-linecap="round" stroke-linejoin="round"/>
  </symbol>

  <symbol id="twitch-icon" viewBox="0 0 20 20">
    <path d="M5 4.6h11v7.2l-2.4 2.4H10l-2.1 1.8v-1.8H6.2L5 12.9V4.6Z" fill="none" stroke="currentColor" stroke-width="1.6" stroke-linejoin="round"/>
    <path d="M10.6 7.6v3m2.6-3v3" fill="none" stroke="currentColor" stroke-width="1.6" stroke-linecap="round"/>
  </symbol>

  <symbol id="newsletter-icon" viewBox="0 0 20 20">
    <rect x="3.5" y="5" width="13" height="11" rx="2.2" fill="none" stroke="currentColor" stroke-width="1.6"/>
    <path d="M6.2 8.1h7.6M6.2 10.7h6.2M6.2 13.3h4.2" fill="none" stroke="currentColor" stroke-width="1.6" stroke-linecap="round"/>
  </symbol>

  <symbol id="contact-icon" viewBox="0 0 20 20">
    <path d="M10 17.3c3.9 0 7-3.1 7-7s-3.1-7-7-7-7 3.1-7 7 3.1 7 7 7Z" fill="none" stroke="currentColor" stroke-width="1.6"/>
    <path d="M8.1 10.6 10 12.4l3.6-4.3" fill="none" stroke="currentColor" stroke-width="1.6" stroke-linecap="round" stroke-linejoin="round"/>
  </symbol>

  <symbol id="hashnode-icon" viewBox="0 0 20 20">
    <path d="M10 3.5 15.7 6.8v6.4L10 16.5 4.3 13.2V6.8L10 3.5Z" fill="none" stroke="currentColor" stroke-width="1.6" stroke-linejoin="round"/>
    <circle cx="10" cy="10" r="2.1" fill="none" stroke="currentColor" stroke-width="1.6"/>
  </symbol>

  <symbol id="codepen-icon" viewBox="0 0 20 20">
    <path d="M10 4.2 16.2 8v4L10 15.8 3.8 12V8L10 4.2Z" fill="none" stroke="currentColor" stroke-width="1.6" stroke-linejoin="round"/>
    <path d="M3.8 8 10 12l6.2-4M10 4.2V8.4m0 3.2v4.2" fill="none" stroke="currentColor" stroke-width="1.6" stroke-linecap="round" stroke-linejoin="round"/>
  </symbol>
</svg>
